<svg xmlns:dc="http://purl.org/dc/elements/1.1/" xmlns:cc="http://creativecommons.org/ns#" xmlns:rdf="http://www.w3.org/1999/02/22-rdf-syntax-ns#" xmlns:svg="http://www.w3.org/2000/svg" xmlns="http://www.w3.org/2000/svg" xmlns:sodipodi="http://sodipodi.sourceforge.net/DTD/sodipodi-0.dtd" xmlns:inkscape="http://www.inkscape.org/namespaces/inkscape" viewBox="0 0 516.62229 479.12784999999997" version="1.1" x="0px" y="0px"><g transform="translate(-127.21554,-345.83149)"><path style="" d="m 483.05084,345.95035 c -12.5311,0.521 -25.6462,3.372 -36.0853,13.915 0,0 23.5232,-2.592 19.2564,2.833 -4.2665,5.426 -38.2947,6.446 -57.9304,23.141 0,0 38.8639,-6.691 29.0461,6.067 -9.8178,12.759 -12.4843,11.591 -20.0651,24.515 -7.5809,12.967 -30.4585,12.674 -34.0625,32.93 0,0 23.6964,-12.785 24.1106,-5.825 0.4156,6.173 -1.6334,33.386 -11.3273,53.642 -34.6313,18.186 -67.5385,33.03 -97.737,42.558 -10.7709,5.22 -18.6702,14 -22.9783,24.273 0,0 -15.5864,-2.279 -27.1852,15.615 -11.5577,17.895 -9.299,21.95 -26.7805,24.353 0,0 5.7514,9.815 14.078,7.039 8.2851,-2.735 -11.2335,22.487 -39.4024,26.215 0,0 3.8899,11.311 13.9971,10.274 10.1077,-1.034 -6.2772,18.831 -31.8779,26.62 -25.6008,7.787 -42.8551,13.302 -50.8916,10.114 0,0 19.9354,47.619 61.7335,21.52 36.3712,-22.742 37.9102,-28.253 37.7031,-29.288 0.4558,0.995 2.1984,6.132 -3.5584,12.055 0,0 16.3611,-12.097 22.4926,-29.289 0,0 3.9974,6.756 0.8895,13.674 0,0 9.4379,-21.041 12.3791,-38.108 2.0709,-11.764 10.2506,-22.242 18.2041,-29.45 2.6105,7.373 10.9295,30.911 14.0778,34.143 3.0662,3.146 -8.0805,15.731 -18.8513,22.897 -4.3081,2.859 -6.5277,7.971 -5.9065,13.107 0.9954,7.955 2.2678,20.184 2.2678,32.363 l -4.1257,0 c -3.7285,0 -6.6762,3.071 -6.6346,6.797 l 0.073,7.767 c 0.037,3.728 3.0699,6.757 6.7964,6.716 l 21.6026,-0.256 c 5.8407,-0.03 8.8294,-7.018 4.9355,-11.327 l -7.0392,-7.687 c -0.9954,-1.075 -2.3116,-1.695 -3.72,-1.943 -0.7875,-8.119 -0.8787,-21.526 5.5021,-28.237 9.5279,-10.066 56.7232,-30.27 47.8165,-43.61 -1.4911,-2.195 -3.2302,-4.751 -5.0967,-7.443 1.4074,-0.292 2.8001,-0.722 4.2072,-1.13 1.5749,2.279 3.0042,4.447 4.2883,6.311 1.6151,2.442 2.1182,5.271 1.5349,8.172 -1.2432,5.757 -7.103,11.398 -14.7252,16.99 -2.5704,9.363 -4.8513,16.81 -1.5386,17.639 4.5155,1.159 17.8743,13.39 26.7805,22.006 -3.1063,1.739 -4.4057,5.669 -2.8328,8.899 l 3.3979,6.959 c 1.6152,3.354 5.7067,4.691 9.0621,3.074 l 19.3369,-9.466 c 5.2196,-2.567 4.9808,-10.022 -0.4156,-12.218 l -9.5468,-4.043 c -1.7829,-0.747 -3.8444,-0.583 -5.5827,0.256 l -2.184,0.97 c -0.8713,-0.872 -1.7938,-1.714 -2.9969,-2.67 -16.0729,-13.255 -11.7798,-27.173 -2.833,-41.506 7.7878,-12.593 15.9774,-37.687 17.7999,-43.528 42.5022,-24.316 85.357,-44.396 128.5632,-59.144 15.7417,-3.15 39.2895,-11.712 47.5745,-17.719 11.3918,-8.202 24.0884,-3.478 33.6579,3.398 6.0895,4.391 4.9326,11.463 3.3178,16.02 -1.699,1.2 -2.9824,3.066 -3.398,5.259 l -1.7829,9.467 c -0.8714,4.473 2.1621,8.8 6.6346,9.628 l 26.0524,4.854 c 7.0421,1.283 12.3441,-6.329 8.6573,-12.46 l -6.1493,-10.356 c 0.1823,-0.62 0.11,-1.357 -0.1822,-2.268 -3.6868,-11.226 -18.185,-20.998 -24.1917,-27.833 -6.0067,-6.834 -7.912,-14.395 -20.7125,-16.424 -9.1546,-1.452 -30.7535,3.289 -42.4767,6.149 0.3719,-1.451 0.6854,-2.836 0.8896,-4.288 6.9594,-1.699 16.3429,-3.815 25.001,-5.097 4.0181,-5.883 11.9798,-15.452 22.0879,-15.535 14.6643,-0.219 22.1159,0.795 22.6544,11.65 0.073,2.444 -0.2553,4.41 -0.6454,6.15 -1.9469,1.987 -3.0444,4.785 -2.5886,7.767 l 1.699,10.356 c 0.8277,4.971 5.5072,8.272 10.4368,7.445 l 28.7228,-4.775 c 7.6222,-1.035 10.2155,-10.847 4.1257,-15.777 l -10.9225,-8.819 c -0.2917,-0.219 -0.6417,-0.291 -0.8896,-0.485 -1.699,-2.031 -3.8275,-5.136 -4.4498,-8.657 -1.0355,-6.214 -19.4238,-9.268 -29.5315,-14.239 -10.1079,-4.888 -15.4529,-12.469 -39.6452,1.698 -9.4864,5.593 -19.1448,8.461 -27.3471,9.952 -0.8277,-2.983 -1.8266,-5.88 -3.234,-8.738 -0.5396,-1.16 -1.1958,-2.243 -1.8595,-3.319 -0.025,-0.02 -0.037,-0.07 -0.073,-0.182 -1.2834,-2.115 -2.7125,-4.121 -4.288,-5.987 -5.3854,-8.16 -14.0693,-23.226 -16.1822,-38.512 -2.7344,-19.677 -0.74,-20.713 -0.1822,-20.713 -0.7438,-0.182 -11.904,-3.106 -13.1881,-13.754 0,0 1.9177,8.937 15.0489,12.54 13.1732,3.603 19.3753,16.235 31.5542,15.697 12.1789,-0.496 11.0203,4.505 13.7544,5.583 2.6943,1.075 3.8402,13.145 17.7188,4.611 13.8776,-8.533 10.3261,-23.133 2.9934,-23.382 -7.3324,-0.255 -3.7907,-13.53 -13.0266,-21.441 -9.2793,-7.912 -13.4678,-18.266 -17.0718,-27.751 0,0 -7.7906,-21.65 -24.0293,-19.662 -8.1195,0.996 -20.0752,-0.845 -32.6063,-0.327 z m 36.894,27.913 c 1.7829,0.464 4.0515,1.404 6.3922,2.749 4.6809,2.65 7.8238,5.959 7.1198,7.2 -0.7439,1.284 -5.1088,0.183 -9.7898,-2.512 -4.6811,-2.689 -7.9467,-5.996 -7.2007,-7.281 0.4156,-0.641 1.6989,-0.63 3.4782,-0.182 z" fill="#000000" fill-opacity="1"/></g><text x="0" y="398.30228" fill="#000000" font-size="5px" font-weight="bold" font-family="'Helvetica Neue', Helvetica, Arial-Unicode, Arial, Sans-serif">Created by Hopkins</text><text x="0" y="403.30228" fill="#000000" font-size="5px" font-weight="bold" font-family="'Helvetica Neue', Helvetica, Arial-Unicode, Arial, Sans-serif">from the Noun Project</text></svg>