<svg xmlns="http://www.w3.org/2000/svg" xmlns:xlink="http://www.w3.org/1999/xlink" version="1.1" x="0px" y="0px" viewBox="0 0 100 125" style="enable-background:new 0 0 100 100;" xml:space="preserve"><g><path d="M44.4,84.8l0.5-1.9c0,0-0.1-0.5,0-1.3c0.1-0.8-1.3-1.8-2.9-4.2c-0.6-0.9-1-2.1-1.3-3.1c-0.4-1.6-0.2-3.2,0.3-4.8   C41.7,67.4,41,66,41,66l-2-9c0,0-1.3,3.7-3.4,7.3c-1.7,3-0.4,5,0.7,6.1c1.1,1.1,1.9,4.8,3.7,8.4c1.9,3.6,0.6,5,0.6,5   c-2.3,2.3-1.3,3.9-1.3,3.9c0-0.5,1.4-1.4,1.4-1.4L44.4,84.8z"/><path d="M78.7,64c0,0-2.3-5.5-3.9-7c0,0-0.7,0.9-5,1.4c0,0,4.9,10.9-1.5,22.3l-2.3,3.3c0,0-4.7,0.8-4.5,1.8c0.2,1.1,2,1.4,6.3,1.2   c4.3-0.2,2.8-2.7,2.8-2.7s1.7-0.6,1.2-3.3C71.3,78.3,78.7,64,78.7,64z"/><path d="M96.7,51c-2.6-3.6-2-8.6-2.2-10.4c-1-8.5-5.9-11.9-7.7-13.3c-5.3-4.2-5.3-1.8-11.1-7.6c-4.7-4.7-8.5-9.9-13-9.9   s-8.5,3-11.4,7.9c-2.1,3.5-7.9,6.5-9.7,7.7c-1.8,1.2-3.2,1.2-7.1,6.1c-3.9,4.9-7.6,0.8-7.6,0.8c-1.7-2.3-2-8.7-3-15.1   c-0.2-1.4-0.5-2.7-0.9-3.7c0.5,0.2,1.1,0.4,1.6,0.3c2-0.2,3.4-3.9,3.4-3.9c-1.3-1.5-3.4-0.5-3.4-0.5c-1.3,0.8-2.5,1-3.4,1   c-1.8-2-3.9-2.1-5.1-1.9c0,0-1.3-0.1-4.2,2.4c-1.5,1.3-3.5,1.9-5.5,1.5c-0.1,0-0.1,0-0.2,0c-2-0.4-2.8,1.4-3.1,2.9   c-0.3,0.8-0.6,1.6-1,2.4c-0.2,0.4-0.3,1,0.4,1.7c0.5,0.1,1.3,0.1,2.7-0.3l0.9-0.3c0,0-1.3,1.7-3.1,1.6C3.4,20.8,4,21.4,4.9,22   c1.2,0.7,3.1,0.8,4.2,0.7c0.1,0.1,0.2,0.1,0.3,0.2c0,0,4.1,1.4,4,8.4c0,2.3-2.3,19.2,13.2,23.9c4.4,1.4,8.3,1.7,12.1,0.7   c0,0-0.5-4.6-1.4-6c0,0,1.9-0.1,3.9,9.5c0,0,0.9,3.9,1.8,7.2c0.3,1,0.2,2,0,3c-0.3,1-0.3,2.6,1.1,4.3c0.5,0.6,0.8,1.3,1,2.1   c0.7,2.6,1.7,8,0.3,10.9c0,0-5.3,0.5-4.9,2.6c0,0,0.2,1.1,1.4,1.1c0,0,5,0.2,7.7-0.3c0.6-0.1,1-0.6,0.9-1.2   c-0.1-0.7-0.2-1.5-0.8-2.2c0,0,1-0.2,0.3-2.8c-0.4-1.9-1-6.3-1.3-8.6c-0.1-0.9,0.1-1.8,0.6-2.5c0.6-0.9,1.2-2.5,0.2-4.2   c-0.5-0.8-0.7-1.7-0.6-2.6c0.3-2.6,0.9-7.8,1.3-10c0.6-3,3.6-5.1-0.2-13.2c0,0,6.5,7.2,1.9,12.1c0,0,12.1,4.2,22.1,0.2   c10-4,8.1-18.1,8.1-18.1s3.4,14.5-6.1,19c0,0,3.1,4.1,4.5,7.6c0.4,0.9,0.4,1.8,0.1,2.8c-0.3,1-0.3,2.6,1.3,4.3   c1.3,1.3,0.4,13.9-1.4,17c0,0-5.3,0.5-5.3,2.1c0,1.6,7.7,2.2,9.8,1.1c0,0,1.4-0.6,0-3c0,0,1.8-1.4,0.6-4   c-1.2-2.6,1.9-10.1,4.6-14.9C92.6,65.1,85,61,87.6,54c1.6-4.2,4.1-7.8,4.6-12.3c1.1,3.4,1.8,10.3,1.8,10.3   c-0.2,2.8,2.6,5.8,2.6,5.8C97.6,54.9,99.1,54.3,96.7,51z M6.4,14.6C5.8,14.5,4.9,15,4.9,15s-0.5,0.3-0.6,0s0.2-0.4,0.2-0.4   s1.5-1.1,1.8-0.9C6.6,13.8,7.1,14.7,6.4,14.6z M12.7,14.3c0,0,0.7-0.8,1.6-0.7c0.9,0.1,1.3,1.6,1.3,1.6S13.4,16.9,12.7,14.3z"/></g><text x="0" y="115" fill="#000000" font-size="5px" font-weight="bold" font-family="'Helvetica Neue', Helvetica, Arial-Unicode, Arial, Sans-serif">Created by parkjisun</text><text x="0" y="120" fill="#000000" font-size="5px" font-weight="bold" font-family="'Helvetica Neue', Helvetica, Arial-Unicode, Arial, Sans-serif">from the Noun Project</text></svg>