<svg xmlns="http://www.w3.org/2000/svg" xmlns:xlink="http://www.w3.org/1999/xlink" version="1.1" x="0px" y="0px" viewBox="0 0 95 118.75" enable-background="new 0 0 95 95" xml:space="preserve"><path d="M82.6,13.191l4.324,1.079c0,0,4.679-0.374,5.177-0.34c0.893,0.062,1.522,0.934,1.522,0.934s0.968,0.022,1.04,0.693  c0.069,0.672-0.871,0.906-0.871,0.906s-0.255,1.01-1.151,1.512c-0.896,0.503-3.956,1.097-3.956,1.097s-0.505,1.049-2.017,2.161  c-1.512,1.109-3.955,1.73-3.955,1.73s1.961,7.909,0.696,13.208c-1.128,4.719-3.476,9.107-7.678,9.553  c-2.717,0.287-3.774-2.057-3.774-2.057s-0.642-0.921-1.741-0.804c-1.909,0.201-2.367,4.453-2.367,4.453s3.872,2.69,6.484,4.475  c0.992,0.678,2.915,2.285,2.915,2.285s2.233-0.146,3.33,1.57c1.086,1.695,0.427,4.635,0.427,4.635l3.633,11.488  c0,0,0.916,0.224,2.019,0.491c1.116,0.27,1.962,0.957,1.962,0.957s-0.237,1.086-2.604,1.732c-2.746,0.756-3.333,0.192-3.454-0.316  c-0.173-0.734,0.364-2.089,0.364-2.089l-3.798-12.032c0,0-1.508-0.198-2.6-1.27c-1.316-1.295-1.446-2.562-1.446-2.562  s-3.128-1.658-4.474-2.13c-2.118-0.743-7.22-3.235-7.22-3.235l-1.793,0.688l3.119,8.252c0,0,1.244,0.644,2.033,2.315  c0.816,1.735-0.135,4.183-0.135,4.183s0.039,5.658,0.203,7.007c0.124,1.06,0.332,5.753,0.332,5.753s0.826,0.518,1.877,1.188  c0.818,0.522,1.623,1.418,1.63,1.763c0.006,0.347-0.867,0.801-2.83,0.76c-2.389-0.056-3.264-0.618-3.305-1.236  c-0.03-0.544,0.745-2.026,0.745-2.026s-0.092-3.394-0.383-6.846c-0.217-2.556-0.219-5.927-0.219-5.927s-1.643-1.06-2.31-2.354  c-0.794-1.543-0.199-2.995-0.199-2.995l-5.738-8.754l-13.889,1.504c0,0-11.026-5.612-12.056-5.504  c-0.929,0.101-3.629,7.861-3.629,7.861s-5.155,5.726-5.843,10.422c-0.395,2.723,0.643,6.662,2.015,9.118  c0.881,1.568,2.19,2.99,2.19,2.99s1.599,0.002,2.881,0.823c1.75,1.118,1.779,1.869,1.779,1.869s-0.348,0.535-2.693,0.782  c-2.821,0.299-3.457-0.608-3.457-0.608l0.239-1.866l-1.228-0.115c0,0-1.771-2.944-2.777-5.213c-1.007-2.267-3.878-8.246-3.878-8.246  s1.355-3.098,2.199-4.982c1.408-3.141,1.951-5.676,1.951-5.676s-6.94,3.771-9.464,7.152c-1.535,2.057-2.71,4.724-3.688,7.011  c-0.53,1.235-2.825,7.519-2.825,7.519s0.695,1.077,0.896,2.857c0.166,1.483,0.111,1.967-0.23,2.086  c-0.34,0.116-1.375,0.084-3.049-1.939c-1.655-2.002-1.825-3.604-1.462-3.983c0.362-0.379,1.618-0.331,1.868-0.572  c0.374-0.358,2.122-4.017,2.781-6.15c0.921-2.968,1.665-8.943,1.665-8.943s4.116-2.054,7.504-6.564  c2.396-3.19,2.051-6.927,2.683-10.243c0.659-3.469,2.277-5.381,2.277-5.381l-0.494-0.185c0,0-2.881,2.676-6.322,3.041  c-3.469,0.368-5.749-1.45-5.589-1.647c0.16-0.198,2.419,0.606,5.689,0.259c3.126-0.33,6.697-4.727,6.697-4.727  s1.703-1.917,3.697-3.385c1.194-0.879,3.229-1.97,4.208-2.978c0.979-1.008,2.293-9.41,7.663-9.978c5.1-0.54,6.592,8.741,9.809,8.401  c4.006-0.424,3.111-10.005,8.483-10.573C58.391,16.75,63.916,32.38,70.36,31.699c6.04-0.639,1.411-10.578,1.411-10.578  s0.752-1.204,1.988-2.562c1.46-1.603,2.43-2.216,2.43-2.216s-1.261-2.317,0.018-3.286c1.147-0.872,2.583,0.899,2.583,0.899  s-0.351-2.439,0.993-2.582C81.126,11.232,82.6,13.191,82.6,13.191z"/><text x="0" y="110" fill="#000000" font-size="5px" font-weight="bold" font-family="'Helvetica Neue', Helvetica, Arial-Unicode, Arial, Sans-serif">Created by Tatiana Belkina</text><text x="0" y="115" fill="#000000" font-size="5px" font-weight="bold" font-family="'Helvetica Neue', Helvetica, Arial-Unicode, Arial, Sans-serif">from the Noun Project</text></svg>